<?xml version="1.0" encoding="UTF-8"?>
<svg xmlns="http://www.w3.org/2000/svg" xmlns:xlink="http://www.w3.org/1999/xlink" width="16px" height="16px" viewBox="0 0 16 16" version="1.1">
<g id="surface1">
<path style=" stroke:none;fill-rule:nonzero;fill:rgb(100%,100%,100%);fill-opacity:1;" d="M 16 13 L 16 8 C 16 7.449219 15.550781 7 15 7 L 13 7 C 12.449219 7 12 7.449219 12 8 L 12 13 C 12 13.550781 12.449219 14 13 14 L 15 14 C 15.550781 14 16 13.550781 16 13 Z M 9 14 C 9.550781 14 10 13.550781 10 13 L 10 3 C 10 2.449219 9.550781 2 9 2 L 7 2 C 6.449219 2 6 2.449219 6 3 L 6 13 C 6 13.550781 6.449219 14 7 14 Z M 0 13 C 0 13.550781 0.449219 14 1 14 L 3 14 C 3.550781 14 4 13.550781 4 13 L 4 6 C 4 5.449219 3.550781 5 3 5 L 1 5 C 0.449219 5 0 5.449219 0 6 Z M 0 13 "/>
</g>
</svg>
