<?xml version="1.0" encoding="UTF-8"?>
<svg xmlns="http://www.w3.org/2000/svg" xmlns:xlink="http://www.w3.org/1999/xlink" width="16px" height="16px" viewBox="0 0 16 16" version="1.1">
<g id="surface1">
<path style=" stroke:none;fill-rule:nonzero;fill:rgb(100%,100%,100%);fill-opacity:1;" d="M 13.535156 10.699219 L 7.160156 10.699219 C 6.539062 10.699219 6.03125 10.164062 6.03125 9.503906 C 6.03125 8.847656 6.539062 8.3125 7.160156 8.3125 L 13.535156 8.3125 C 14.160156 8.3125 14.667969 8.847656 14.667969 9.503906 C 14.667969 10.164062 14.160156 10.699219 13.535156 10.699219 Z M 7.160156 8.976562 C 6.90625 8.976562 6.695312 9.214844 6.695312 9.503906 C 6.695312 9.796875 6.90625 10.03125 7.160156 10.03125 L 13.535156 10.03125 C 13.792969 10.03125 14 9.796875 14 9.503906 C 14 9.214844 13.792969 8.976562 13.535156 8.976562 Z M 7.160156 8.976562 "/>
<path style=" stroke:none;fill-rule:nonzero;fill:rgb(100%,100%,100%);fill-opacity:1;" d="M 7.746094 16 C 6.675781 16 5.761719 15.644531 5.097656 14.972656 L 2.367188 12.183594 C 1.699219 11.507812 1.332031 10.546875 1.332031 9.476562 C 1.332031 8.425781 1.699219 7.472656 2.367188 6.792969 L 8.714844 0.339844 C 9.152344 -0.105469 9.933594 -0.09375 10.382812 0.363281 C 10.847656 0.835938 10.859375 1.589844 10.40625 2.046875 L 9.234375 3.257812 C 9.667969 3.433594 10.0625 3.695312 10.390625 4.03125 L 12.035156 5.714844 C 12.480469 6.171875 12.46875 6.925781 12.007812 7.398438 C 11.785156 7.628906 11.476562 7.757812 11.152344 7.761719 C 10.84375 7.761719 10.554688 7.640625 10.339844 7.421875 L 8.648438 5.757812 C 8.433594 5.542969 8.128906 5.433594 7.738281 5.433594 C 7.332031 5.433594 7.023438 5.539062 6.820312 5.746094 L 4.109375 8.542969 C 3.882812 8.773438 3.761719 9.09375 3.761719 9.476562 C 3.761719 9.859375 3.886719 10.207031 4.109375 10.433594 L 6.828125 13.21875 C 7.039062 13.433594 7.347656 13.542969 7.738281 13.542969 C 8.128906 13.542969 8.433594 13.433594 8.644531 13.21875 L 10.34375 11.550781 C 10.554688 11.335938 10.847656 11.214844 11.148438 11.214844 L 11.152344 11.214844 C 11.472656 11.214844 11.777344 11.34375 12.007812 11.578125 C 12.46875 12.046875 12.480469 12.804688 12.03125 13.261719 L 10.394531 14.941406 C 9.722656 15.625 8.785156 16 7.746094 16 Z M 9.527344 0.667969 C 9.398438 0.664062 9.277344 0.714844 9.1875 0.808594 L 2.84375 7.261719 C 2.300781 7.8125 2 8.601562 2 9.476562 C 2 10.371094 2.300781 11.167969 2.84375 11.71875 L 5.574219 14.507812 C 6.109375 15.046875 6.859375 15.332031 7.746094 15.332031 C 8.605469 15.332031 9.375 15.03125 9.917969 14.480469 L 11.554688 12.796875 C 11.753906 12.59375 11.742188 12.257812 11.53125 12.046875 C 11.433594 11.941406 11.296875 11.882812 11.152344 11.882812 L 11.148438 11.882812 C 11.023438 11.882812 10.902344 11.933594 10.816406 12.023438 L 9.117188 13.691406 C 8.785156 14.03125 8.308594 14.210938 7.738281 14.210938 C 7.167969 14.210938 6.6875 14.03125 6.351562 13.6875 L 3.628906 10.898438 C 3.285156 10.546875 3.09375 10.042969 3.09375 9.476562 C 3.09375 8.925781 3.285156 8.429688 3.632812 8.078125 L 6.34375 5.28125 C 6.679688 4.9375 7.148438 4.765625 7.738281 4.765625 C 8.304688 4.765625 8.785156 4.949219 9.121094 5.289062 L 10.808594 6.949219 C 10.898438 7.042969 11.023438 7.09375 11.152344 7.09375 C 11.296875 7.09375 11.433594 7.035156 11.53125 6.929688 C 11.742188 6.71875 11.753906 6.382812 11.558594 6.183594 L 9.914062 4.496094 C 9.542969 4.125 9.078125 3.859375 8.5625 3.738281 C 8.449219 3.710938 8.34375 3.621094 8.308594 3.507812 C 8.273438 3.390625 8.296875 3.265625 8.378906 3.179688 L 9.929688 1.578125 C 10.128906 1.378906 10.117188 1.042969 9.90625 0.832031 C 9.808594 0.726562 9.671875 0.667969 9.527344 0.667969 Z M 9.527344 0.667969 "/>
</g>
</svg>
